G04 #@! TF.GenerationSoftware,KiCad,Pcbnew,(5.1.2-1)-1*
G04 #@! TF.CreationDate,2019-05-13T00:27:32-07:00*
G04 #@! TF.ProjectId,Bottom,426f7474-6f6d-42e6-9b69-6361645f7063,rev?*
G04 #@! TF.SameCoordinates,Original*
G04 #@! TF.FileFunction,Profile,NP*
%FSLAX46Y46*%
G04 Gerber Fmt 4.6, Leading zero omitted, Abs format (unit mm)*
G04 Created by KiCad (PCBNEW (5.1.2-1)-1) date 2019-05-13 00:27:32*
%MOMM*%
%LPD*%
G04 APERTURE LIST*
%ADD10C,0.200000*%
G04 APERTURE END LIST*
D10*
X131119999Y-80010000D02*
G75*
G02X132719999Y-80010000I800000J0D01*
G01*
X159119999Y-47010000D02*
X152120000Y-47010000D01*
X159120000Y-54010000D02*
X159119999Y-47010000D01*
X135320000Y-80010000D02*
X135320000Y-82010000D01*
X126120000Y-75010001D02*
X124120000Y-75010001D01*
X153320000Y-82010000D02*
X159120000Y-82010000D01*
X153320000Y-80010000D02*
X153320000Y-82010000D01*
X157119999Y-59410000D02*
X157119999Y-55610000D01*
X157119999Y-61009999D02*
G75*
G02X157119999Y-59410001I0J799999D01*
G01*
X159120000Y-61010000D02*
X157119999Y-61010000D01*
X159120000Y-67610001D02*
X159120000Y-61010000D01*
X131119999Y-82010000D02*
X131119999Y-80010000D01*
X124120000Y-61410000D02*
X124120000Y-68010000D01*
X146120000Y-49010002D02*
G75*
G02X144520000Y-49010000I-800000J1D01*
G01*
X146120000Y-47010000D02*
X146120000Y-49010001D01*
X157119999Y-54010000D02*
X159120000Y-54010000D01*
X157119999Y-55609999D02*
G75*
G02X157119999Y-54010001I0J799999D01*
G01*
X124120000Y-68010000D02*
X126120000Y-68010000D01*
X157119999Y-67610001D02*
X159120000Y-67610001D01*
X157119999Y-69210001D02*
G75*
G02X157119999Y-67610001I0J800000D01*
G01*
X135320000Y-82010000D02*
X137119999Y-82010000D01*
X133719999Y-80010000D02*
G75*
G02X135319999Y-80010000I800000J0D01*
G01*
X137520000Y-49010001D02*
G75*
G02X135920000Y-49010001I-800000J0D01*
G01*
X138520000Y-49010001D02*
X137520000Y-49010000D01*
X140120000Y-49010001D02*
G75*
G02X138520000Y-49010001I-800000J0D01*
G01*
X140120000Y-47010000D02*
X140120000Y-49010001D01*
X141919999Y-47010000D02*
X140120000Y-47010000D01*
X149520000Y-49010001D02*
G75*
G02X147920000Y-49010001I-800000J0D01*
G01*
X150520000Y-49010001D02*
X149520000Y-49010001D01*
X159119999Y-74610001D02*
X157119999Y-74610001D01*
X159120000Y-82010000D02*
X159119999Y-74610001D01*
X157119999Y-73010001D02*
X157119999Y-69210001D01*
X157119999Y-74610001D02*
G75*
G02X157119999Y-73010001I0J800000D01*
G01*
X137119999Y-80010000D02*
G75*
G02X138719999Y-80010000I800000J0D01*
G01*
X124120000Y-82010000D02*
X131119999Y-82010000D01*
X141919999Y-49010001D02*
X141919999Y-47010000D01*
X143520000Y-49010001D02*
G75*
G02X141920000Y-49010001I-800000J0D01*
G01*
X144520000Y-49010000D02*
X143520000Y-49010001D01*
X152120000Y-49010001D02*
G75*
G02X150520000Y-49010001I-800000J0D01*
G01*
X152120000Y-47010000D02*
X152120000Y-49010001D01*
X126120000Y-61410000D02*
X124120000Y-61410000D01*
X126120000Y-59810000D02*
G75*
G02X126120000Y-61410000I0J-800000D01*
G01*
X126120000Y-56010000D02*
X126120000Y-59810000D01*
X126120000Y-54410000D02*
G75*
G02X126120000Y-56010000I0J-800000D01*
G01*
X124120000Y-54410000D02*
X126120000Y-54410000D01*
X124120000Y-47010001D02*
X124120000Y-54410000D01*
X129919999Y-47010000D02*
X124120000Y-47010001D01*
X129920000Y-49010001D02*
X129919999Y-47010000D01*
X131520000Y-49010001D02*
G75*
G02X129920000Y-49010001I-800000J0D01*
G01*
X132520000Y-49010001D02*
X131520000Y-49010000D01*
X134120000Y-49010001D02*
G75*
G02X132520000Y-49010001I-800000J0D01*
G01*
X134119999Y-47010000D02*
X134120000Y-49010001D01*
X135919999Y-47010000D02*
X134119999Y-47010000D01*
X135920000Y-49010001D02*
X135919999Y-47010000D01*
X126120000Y-69610000D02*
X126120000Y-73410000D01*
X143119999Y-80010000D02*
G75*
G02X144719999Y-80010000I800000J0D01*
G01*
X143119999Y-82010000D02*
X143119999Y-80010000D01*
X126120000Y-68010000D02*
G75*
G02X126120000Y-69610000I0J-800000D01*
G01*
X151719999Y-80010000D02*
G75*
G02X153319999Y-80010000I800000J0D01*
G01*
X150719999Y-80010001D02*
X151719999Y-80010000D01*
X149119999Y-80010000D02*
G75*
G02X150719999Y-80010000I800000J0D01*
G01*
X149119999Y-82010000D02*
X149119999Y-80010000D01*
X145719999Y-80010000D02*
G75*
G02X147319999Y-80010000I800000J0D01*
G01*
X144719999Y-80010001D02*
X145719999Y-80010000D01*
X124120000Y-75010001D02*
X124120000Y-82010000D01*
X126120000Y-73410000D02*
G75*
G02X126120000Y-75010000I0J-800000D01*
G01*
X139719999Y-80010000D02*
G75*
G02X141319999Y-80010000I800000J0D01*
G01*
X147919999Y-47010000D02*
X146120000Y-47010000D01*
X147919999Y-49010001D02*
X147919999Y-47010000D01*
X137119999Y-82010000D02*
X137119999Y-80010000D01*
X141320000Y-82010000D02*
X143119999Y-82010000D01*
X141320000Y-80010000D02*
X141320000Y-82010000D01*
X132719999Y-80010000D02*
X133719999Y-80010000D01*
X138719999Y-80010000D02*
X139719999Y-80010000D01*
X147320000Y-82010000D02*
X149119999Y-82010000D01*
X147320000Y-80010000D02*
X147320000Y-82010000D01*
M02*
